<svg width="256" height="256" viewBox="0 0 256 256" fill="none" xmlns="http://www.w3.org/2000/svg">
<g clip-path="url(#clip0_0_1)">
<path d="M240.005 127.999C240.005 123.921 239.777 119.9 239.344 115.937L256 109.269C255.018 102.643 253.531 96.183 251.569 89.9273L233.628 91.0723C230.889 83.4017 227.322 76.1221 223.03 69.3335L235.113 56.1822C231.343 50.6945 227.152 45.5141 222.593 40.6827L206.947 49.4052C201.178 43.7337 194.792 38.6813 187.892 34.3526L193.007 17.3124C187.254 14.0007 181.224 11.1103 174.953 8.69459L164.678 23.2772C157.089 20.6753 149.121 18.8601 140.892 17.9268L138.027 0.379329C134.72 0.127986 131.38 0 128.001 0C124.629 0 121.285 0.127986 117.976 0.379329L115.115 17.9268C106.879 18.8601 98.918 20.6753 91.3267 23.2772L81.052 8.69459C74.7802 11.1126 68.7481 13.9984 62.9976 17.3124L68.1104 34.3526C61.2102 38.6789 54.8244 43.736 49.0553 49.4052L33.4095 40.6827C28.8504 45.5141 24.6592 50.6945 20.8914 56.1822L32.9719 69.3335C28.6805 76.1221 25.1153 83.4017 22.3738 91.0723L4.43333 89.9273C2.46917 96.183 0.982082 102.643 0 109.269L16.6582 115.937C16.223 119.9 15.9949 123.921 15.9949 127.999C15.9949 132.076 16.2253 136.098 16.6582 140.061L0 146.729C0.982082 153.354 2.47149 159.815 4.43333 166.07L22.3738 164.925C25.1153 172.596 28.6805 179.876 32.9719 186.664L20.8914 199.82C24.6592 205.303 28.8504 210.486 33.4095 215.317L49.0553 206.595C54.8244 212.264 61.2102 217.319 68.1104 221.645L62.9976 238.688C68.7481 241.999 74.7802 244.89 81.052 247.305L91.3267 232.723C98.918 235.325 106.879 237.138 115.115 238.071L117.976 255.621C121.285 255.872 124.627 256 128.001 256C131.378 256 134.72 255.872 138.027 255.621L140.892 238.071C149.121 237.138 157.089 235.325 164.678 232.723L174.953 247.305C181.224 244.89 187.254 242.002 193.007 238.69L187.892 221.645C194.794 217.321 201.18 212.264 206.947 206.595L222.593 215.317C227.152 210.486 231.343 205.306 235.113 199.82L223.028 186.664C227.322 179.876 230.889 172.596 233.628 164.925L251.569 166.07C253.533 159.815 255.018 153.354 256 146.729L239.344 140.061C239.777 136.1 240.005 132.076 240.005 127.999ZM128.004 224.473C74.1519 224.473 30.4934 181.279 30.4934 128.001C30.4934 74.7234 74.1542 31.5273 128.004 31.5273C181.86 31.5273 225.518 74.7234 225.518 128.001C225.518 181.279 181.86 224.473 128.004 224.473Z" fill="black"/>
<path d="M179.519 29.0114H181.21L180.134 30.3398H179.519L179.519 29.0114ZM55.0185 32.2377V33.7562L51.0215 39.8302H50.4066L49.7918 35.0854C52.1486 33.1875 53.8909 32.2386 55.0186 32.2386M200.749 34.3266C204.234 34.3268 206.18 37.0473 206.591 42.4878L203.67 68.113H204.746L207.051 66.2151H207.666V66.7844C204.489 69.1888 201.415 75.7674 198.44 86.5275C197.312 95.7682 195.417 104.307 192.752 112.153C190.394 120.251 189.216 127.72 189.216 134.553L184.758 148.032C184.758 149.171 186.449 150.309 189.831 151.448C189.216 154.106 188.294 155.434 187.064 155.434V156.193H188.14V156.762C188.14 158.155 186.397 158.85 182.913 158.85L183.528 159.61V162.267H182.452C183.169 164.925 184.707 166.253 187.063 166.253V167.582H182.452V168.341C183.989 168.341 184.758 169.48 184.758 171.757L178.301 174.415L178.916 175.174V175.743C178.916 176.629 178.147 177.072 176.61 177.072V177.831C178.557 177.831 179.53 178.274 179.531 179.159C176.764 180.298 173.125 185.929 168.614 196.05C164.002 205.033 160.007 209.529 156.624 209.529H155.394C152.832 207.504 150.731 200.798 149.092 189.413C142.533 172.077 139.254 161.895 139.254 158.856C139.254 151.011 137.153 142.658 132.951 133.8C131.823 129.877 131.055 124.943 130.645 118.997L127.878 118.238C120.909 131.272 117.271 141.455 116.961 148.794C115.014 153.096 113.477 158.284 112.35 164.361C116.552 165.753 118.652 167.082 118.652 168.347V169.106C115.373 168.6 113.067 167.651 111.735 166.259C110.3 169.676 108.404 179.17 106.047 194.728C104.202 201.94 101.896 205.55 99.1295 205.55C91.3428 202.387 84.8299 197.199 79.6052 189.983C78.7855 189.983 77.4526 186.377 75.6082 179.161C74.4812 179.161 73.7119 175.554 73.3024 168.339C69.4083 158.094 66.7434 146.383 65.307 133.224V113.481H64.6921L61.925 114.24V113.481C61.925 112.595 62.8476 112.152 64.6921 112.152L64.0772 100.761V91.8406L59.619 63.3721V51.2259C61.5664 43.6343 64.948 39.835 69.7661 39.835H102.05V41.1633C99.488 41.29 97.7457 41.9859 96.8231 43.2514C94.8757 41.8599 92.9801 41.1633 91.1349 41.1633H84.8322L81.2965 41.7327L80.6816 41.1633H80.2205L75.6089 41.7327L73.3031 41.1633L71.6119 41.7327L69.7674 41.1633C77.2519 51.2837 81.6562 59.8313 82.9876 66.7885H88.2144V68.1169H84.2174V69.6354C85.7546 75.4561 86.8823 78.366 87.5991 78.366H88.829L91.5961 77.6069L92.211 78.366L92.8258 77.6069L93.4407 78.366V78.9354C91.3911 80.4539 90.0072 82.542 89.2904 85.1987H88.8293V86.527H89.9052C91.3402 107.656 94.0043 123.668 97.9006 134.543L100.206 136.441H101.436C102.973 136.441 106.202 129.039 111.123 114.237C114.3 107.531 116.606 101.646 118.04 96.5816L117.425 94.4936C120.603 89.5587 123.882 87.0912 127.263 87.0912H128.339C130.491 87.0913 132.029 88.4836 132.95 91.2664C135.82 95.4425 138.126 101.707 139.868 110.059L148.475 129.802C149.602 131.194 150.166 132.776 150.166 134.547C153.343 142.012 156.213 146.951 158.773 149.35H160.618C162.769 149.35 165.639 140.109 169.225 121.636C169.84 121.636 171.531 116.701 174.298 106.833V106.074L164.611 104.746L162.305 105.505H159.384V103.987L165.226 103.417H176.603C181.01 87.095 185.059 74.4423 188.751 65.4593C189.981 46.9867 191.672 37.746 193.824 37.746L200.741 34.3296M167.997 36.4177C167.382 38.1894 166.05 39.0753 164 39.0753V37.7469L167.997 36.4186M110.043 39.835H125.566V41.1633L122.03 41.7327L118.649 41.1633L115.728 42.4917L114.652 41.1633H110.04V39.835M29.1507 42.4926H30.8419L31.9178 43.8209V44.5801L28.5361 48.566V51.9824H27.3062V49.8944L27.9211 49.325V48.5658L25 45.1494C25.7174 43.3777 27.1011 42.4935 29.1507 42.4926ZM142.136 50.653H143.828V51.2224C143.828 52.1082 143.264 52.5507 142.136 52.5507L141.522 53.3099V54.069L139.83 53.3099V51.9815L142.136 50.653ZM133.529 58.0555V58.8147C133.529 59.8267 131.069 60.9027 126.153 62.0409V60.7126L129.534 58.8147L130.149 59.384H130.61L133.531 58.0557M33.1392 64.8885V65.4579L31.9093 66.7862L31.4481 66.2168V65.4577L31.9093 64.8883L33.1392 64.8885ZM116.907 64.8883V65.4577C114.755 67.4826 111.271 69.3174 106.451 70.9621V69.6338C107.27 69.6339 107.681 68.938 107.681 67.5457L116.907 64.8881M146.117 71.5308L146.732 72.2899V72.8593L145.656 74.3778H145.042L143.812 72.8593V72.2899L146.117 71.5308ZM167.333 72.2899H167.948V72.8593L166.872 74.3778H166.257V73.6186L167.333 72.2899ZM157.646 81.7798L159.952 83.6777C159.542 85.07 158.415 85.7657 156.57 85.7657L155.341 83.6777C155.34 83.0451 156.109 82.4124 157.646 81.7798ZM171.478 90.5105L171.939 91.2696V91.839L171.478 92.5982H170.248V91.839L171.478 90.5105ZM149.651 97.3435V97.9128L146.73 100.76H145.039V100C145.039 98.8614 146.576 97.9764 149.65 97.3429M54.3676 123.723H54.9825V124.293C53.4453 128.469 52.1132 130.999 50.9855 131.884H49.7556V129.037L54.3676 123.723ZM129.571 155.417H130.186V156.745L125.575 159.592L124.96 158.833V157.505L129.571 155.417ZM66.3927 164.338H67.4686L69.3131 171.74H68.0831L66.3919 164.907V164.338M127.879 173.068H128.341L130.185 175.156L129.57 175.726H128.955L127.879 173.828V173.068Z" fill="white"/>
</g>
<defs>
<clipPath id="clip0_0_1">
<rect width="256" height="256" fill="white"/>
</clipPath>
</defs>
</svg>
